<svg xmlns="http://www.w3.org/2000/svg" width="81" height="81"><path fill="#62497c" d="M40.933.618C63.061.618 81 18.596 81 40.774c0 22.177-17.939 40.155-40.067 40.155S.866 62.951.866 40.774C.866 18.596 18.805.618 40.933.618z"/><path fill="#fefefe" d="M54.105 57.352H51.65a1.844 1.844 0 0 1-1.842-1.84c-.006.009-.272-.616-2.456-.616H35.07c-2.235 0-2.46.664-2.461.672.004.957-.822 1.784-1.838 1.784h-2.456a1.844 1.844 0 0 1-1.842-1.843V27.266a3.074 3.074 0 0 1 3.07-3.07h23.333a3.074 3.074 0 0 1 3.07 3.07v28.243a1.844 1.844 0 0 1-1.842 1.843zm.614-30.086a1.844 1.844 0 0 0-1.842-1.843H29.544a1.844 1.844 0 0 0-1.842 1.843v9.824h27.017zm0 11.051H27.702v11.666h27.017zm0 12.895H27.702v4.297c0 .34.275.614.614.614h2.456a.614.614 0 0 0 .614-.614c0-.188.103-1.841 3.684-1.841h12.28c3.582 0 3.685 1.653 3.685 1.841 0 .34.276.614.614.614h2.456a.614.614 0 0 0 .614-.614zm-17.807-8.597c.34 0 .614.275.614.615v.92c0 .106.24.308.614.308h6.14c.376 0 .615-.202.615-.307v-.921a.614.614 0 1 1 1.228 0v.92c0 .847-.826 1.536-1.842 1.536h-6.14c-1.016 0-1.843-.69-1.843-1.535v-.921c0-.34.275-.615.614-.615zm0-12.893c.34 0 .614.274.614.614v.92c0 .106.24.307.614.307h6.14c.376 0 .615-.201.615-.306v-.921a.614.614 0 1 1 1.228 0v.92c0 .847-.826 1.535-1.842 1.535h-6.14c-1.016 0-1.843-.688-1.843-1.534v-.921c0-.34.275-.614.614-.614z"/></svg>