<svg xmlns="http://www.w3.org/2000/svg" width="81" height="81"><path fill="#62497c" d="M40.68.618c22.128 0 40.066 17.978 40.066 40.156 0 22.177-17.938 40.155-40.067 40.155C18.551 80.93.612 62.951.612 40.774.612 18.596 18.551.618 40.68.618z"/><path fill="#fefefe" d="M55.19 54.497H26.676c-1.787 0-3.24-1.466-3.24-3.267V30.317c0-1.801 1.453-3.268 3.24-3.268H55.19c1.787 0 3.24 1.467 3.24 3.268V51.23c0 1.801-1.453 3.267-3.24 3.267zm1.945-24.18c0-1.08-.873-1.96-1.945-1.96H26.676c-1.072 0-1.945.88-1.945 1.96V51.23c0 1.081.873 1.96 1.945 1.96H55.19a1.955 1.955 0 0 0 1.945-1.96zM43.318 41.52c-.657.572-1.521.86-2.385.86-.864 0-1.728-.287-2.385-.86L26.252 30.812a.657.657 0 0 1-.067-.922.644.644 0 0 1 .914-.067L39.395 40.53c.834.726 2.242.726 3.076 0l12.296-10.708a.644.644 0 0 1 .914.067.657.657 0 0 1-.067.922z"/></svg>